# AST/ASF file generated using VICON BodyLanguage
# -----------------------------------------------
:version 1.10
:name VICON
:units
  mass 1.0
  length 0.45
  angle deg
:documentation
   .ast/.asf automatically generated from VICON data using
   VICON BodyBuilder and BodyLanguage model FoxedUp or BRILLIANT.MOD
:root
   order TX TY TZ RX RY RZ
   axis XYZ
   position 0 0 0  
   orientation 0 0 0 
:bonedata
  begin
     id 1 
     name lhipjoint
     direction 0.635376 -0.686425 0.353719 
     length 2.47244 
     axis 0 0 0  XYZ
  end
  begin
     id 2 
     name lfemur
     direction 0.34202 -0.939693 0  
     length 7.25268  
     axis 0 0 20  XYZ
    dof rx ry rz
    limits (-160.0 20.0)
           (-70.0 70.0)
           (-60.0 70.0)
  end
  begin
     id 3 
     name ltibia
     direction 0.34202 -0.939693 0   
     length 7.6767   
     axis 0 0 20   XYZ
    dof rx
    limits (-10.0 170.0)
  end
  begin
     id 4 
     name lfoot
     direction 0.0803374 -0.220725 0.972022   
     length 2.22945   
     axis -90 7.62852e-016 20   XYZ
    dof rx rz
    limits (-45.0 90.0)
           (-70.0 20.0)
  end
  begin
     id 5 
     name ltoes
     direction 1.53579e-011 -4.21994e-011 1   
     length 1.11848   
     axis -90 7.62852e-016 20   XYZ
    dof rx
    limits (-90.0 20.0)
  end
  begin
     id 6 
     name rhipjoint
     direction -0.664428 -0.664335 0.342336   
     length 2.55466  
     axis 0 0 0  XYZ 
  end
  begin
     id 7 
     name rfemur
     direction -0.34202 -0.939693 0   
     length 6.83172   
     axis 0 0 -20   XYZ
    dof rx ry rz
    limits (-160.0 20.0)
           (-70.0 70.0)
           (-70.0 60.0)
  end
  begin
     id 8 
     name rtibia
     direction -0.34202 -0.939693 0   
     length 7.62692   
     axis 0 0 -20   XYZ
    dof rx
    limits (-10.0 170.0)
 end
 begin
     id 9 
     name rfoot
     direction -0.0949276 -0.260811 0.960711   
     length 2.19684  
     axis -90 -7.62852e-016 -20   XYZ
    dof rx rz
    limits (-45.0 90.0)
           (-20.0 70.0)
  end
  begin
     id 10 
     name rtoes
     direction -1.53543e-011 -4.2183e-011 1   
     length 1.09848   
     axis -90 -7.62852e-016 -20   XYZ
    dof rx
    limits (-90.0 20.0)
  end
  begin
     id 11 
     name lowerback
     direction 0.0118782 0.999815 -0.0151555   
     length 2.15772   
     axis 0 0 0   XYZ
    dof rx ry rz
    limits (-20.0 45.0)
           (-30.0 30.0)
           (-30.0 30.0)
  end
  begin
     id 12 
     name upperback
     direction 0.00130825 0.999065 0.0432113   
     length 2.14863   
     axis 0 0 0   XYZ
    dof rx ry rz
    limits (-20.0 45.0)
           (-30.0 30.0)
           (-30.0 30.0)
  end
  begin
     id 13 
     name thorax
     direction -0.00347005 0.998773 0.0494011   
     length 2.14936   
     axis 0 0 0   XYZ
    dof rx ry rz
    limits (-20.0 45.0)
           (-30.0 30.0)
           (-30.0 30.0)
  end
  begin
     id 14 
     name lowerneck
     direction -0.0262159 0.99424 0.103921   
     length 1.69373   
     axis 0 0 0   XYZ
    dof rx ry rz
    limits (-20.0 45.0)
           (-30.0 30.0)
           (-30.0 30.0)
  end
  begin
     id 15 
     name upperneck
     direction 0.0353511 0.977394 -0.20845   
     length 1.70857   
     axis 0 0 0   XYZ
    dof rx ry rz
    limits (-20.0 45.0)
           (-30.0 30.0)
           (-30.0 30.0)
  end
  begin
     id 16
     name head
     direction 0.0139214 0.996594 -0.0812836  
     length 1.72777  
     axis 0 0 0   XYZ
    dof rx ry rz
    limits (-20.0 45.0)
           (-30.0 30.0)
           (-30.0 30.0)
  end
  begin
     id 17 
     name lclavicle
     direction 0.841247 0.537205 -0.0609508  
     length 3.55371  
     axis 0 0 0   XYZ
    dof ry rz
    limits (-20.0 10.0)
           (0.0 20.0)
  end
  begin
     id 18 
     name lhumerus
     direction 1 -4.48964e-011 1.60116e-018   
     length 4.91377   
     axis -180 -30 -90   XYZ
    dof rx ry rz
    limits (-60.0 90.0)
           (-90.0 90.0)
           (-90.0 90.0)
  end
  begin
     id 19
     name lradius
     direction 1 -4.48989e-011 -8.93847e-027   
     length 3.00291   
     axis -180 -30 -90   XYZ
    dof rx
    limits (-10.0 170.0)
  end
  begin
     id 20
     name lwrist
     direction 1 -4.48932e-011 -7.31504e-027   
     length 1.50145   
     axis 5.74121e-015 90 90   XYZ
    dof ry
    limits (-180.0 0.0)
 end
  begin
     id 21 
     name lhand
     direction 1 -4.48971e-011 -1.46301e-026   
     length 0.450922   
     axis 9.33524e-015 90 90   XYZ
    dof rx rz
    limits (-90.0 90.0)
           (-45.0 45.0)
  end
  begin
     id 22 
     name lfingers
     direction 1 -4.49039e-011 -2.92602e-026   
     length 0.363545   
     axis 1.86705e-014 90 90   XYZ
    dof rx
    limits (0.0 90.0)
  end
  begin
     id 23
     name lthumb
     direction 0.707107 -6.34941e-011 0.707107   
     length 0.52198   
     axis -90 45 2.85299e-015   XYZ
    dof rx rz
    limits (-45.0 45.0)
           (-45.0 45.0)
  end
  begin
     id 24 
     name rclavicle
     direction -0.825079 0.56158 -0.0622297   
     length 3.39909  
     axis 0 0 0   XYZ 
    dof ry rz
    limits (-10.0 20.0)
           (-20.0 0.0)
  end
  begin
     id 25 
     name rhumerus
     direction -1 -4.48965e-011 1.61691e-027  
     length 4.86725   
     axis -180 30 90   XYZ
    dof rx ry rz
    limits (-90.0 60.0)
           (-90.0 90.0)
           (-90.0 90.0)
  end
  begin
     id 26 
     name rradius
     direction -1 -4.48964e-011 -2.25776e-027   
     length 3.17144   
     axis -180 30 90   XYZ
    dof rx
    limits (-10.0 170.0)
  end
  begin
     id 27 
     name rwrist
     direction -1 -4.48961e-011 -7.31504e-027   
     length 1.58572   
     axis 5.74121e-015 -90 -90   XYZ
    dof ry
    limits (-180.0 0.0)
  end
  begin
     id 28
     name rhand
     direction -1 -4.49013e-011 -1.46301e-026   
     length 0.419368   
     axis 9.33524e-015 -90 -90   XYZ
    dof rx rz
    limits (-90.0 90.0)
           (-45.0 45.0)
  end
  begin
     id 29
     name rfingers
     direction -1 -4.489e-011 -2.92602e-026   
     length 0.338105   
     axis 1.86705e-014 -90 -90   XYZ
    dof rx
    limits (0.0 90.0)
  end
  begin
     id 30
     name rthumb
     direction -0.707107 -6.35022e-011 0.707107   
     length 0.485453   
     axis -90 -45 -2.85299e-015   XYZ
    dof rx rz
    limits (-45.0 45.0)
           (-45.0 45.0)
  end
:hierarchy
  begin
    root lhipjoint rhipjoint lowerback
    lhipjoint lfemur
    lfemur ltibia
    ltibia lfoot
    lfoot ltoes
    rhipjoint rfemur
    rfemur rtibia
    rtibia rfoot
    rfoot rtoes
    lowerback upperback
    upperback thorax
    thorax lowerneck lclavicle rclavicle
    lowerneck upperneck
    upperneck head
    lclavicle lhumerus
    lhumerus lradius
    lradius lwrist
    lwrist lhand lthumb
    lhand lfingers
    rclavicle rhumerus
    rhumerus rradius
    rradius rwrist
    rwrist rhand rthumb
    rhand rfingers
  end

#!OML:ASF H:\Swim 2\Project 1\Capture day 1\Session 1\male.ASF
:FULLY-SPECIFIED
:DEGREES
195
root 1.87503 13.8738 7.91176 87.4096 -2.04244 -4.31839
lowerback -12.5715 3.99474 -5.76333
upperback -9.737 6.10423 1.22873
thorax -4.04005 3.56159 5.00168
lowerneck -23.1483 -6.01344 -3.19386
upperneck 34.5256 -8.47216 2.58259
head 16.6046 -3.42043 -0.0544122
rclavicle -1.06549e-013 -4.29375e-014
rhumerus 42.3178 16.3071 -23.6556
rradius 112.671
rwrist -48.7638
rhand -49.3684 7.8869
rfingers 7.12502
rthumb -21.9828 -20.8839
lclavicle -1.06549e-013 -4.29375e-014
lhumerus 65.0603 -22.2665 27.158
lradius 110.194
lwrist 53.3248
lhand -55.6217 -10.0833
lfingers 7.12502
lthumb -27.9746 17.8522
rfemur -44.2496 -28.1707 -22.4608
rtibia 120.542
rfoot -11.6908 15.7001
rtoes -5.1862
lfemur -39.6284 23.2468 16.405
ltibia 129.358
lfoot -18.5794 -12.1441
ltoes -1.82087
196
root 1.88296 13.8807 7.9093 87.6977 -2.04159 -4.09452
lowerback -13.1389 3.93535 -5.84014
upperback -9.87682 6.06308 1.18584
thorax -3.88698 3.54627 5.04033
lowerneck -22.6482 -6.01732 -2.97052
upperneck 35.1297 -8.6146 2.58395
head 16.7866 -3.43899 -0.110002
rclavicle 1.11319e-014 4.77083e-015
rhumerus 42.9423 14.9903 -24.2474
rradius 111.319
rwrist -48.8789
rhand -49.781 5.8654
rfingers 7.12502
rthumb -22.3789 -22.8584
lclavicle 1.11319e-014 4.77083e-015
lhumerus 65.6561 -21.539 28.6524
lradius 108.551
lwrist 54.9761
lhand -55.2004 -8.78658
lfingers 7.12502
lthumb -27.5718 19.2139
rfemur -42.9566 -27.4197 -22.667
rtibia 118.073
rfoot -11.2562 13.6023
rtoes -3.68136
lfemur -38.8145 21.7499 16.3707
ltibia 127.539
lfoot -18.0202 -10.3036
ltoes -1.43305
197
root 1.89085 13.8884 7.90589 87.9883 -2.0523 -3.85417
lowerback -13.6715 3.86891 -5.89209
upperback -9.99546 6.00785 1.12101
thorax -3.72297 3.51981 5.03863
lowerneck -22.1827 -5.99436 -2.70791
upperneck 35.7962 -8.71984 2.5473
head 17.0058 -3.43904 -0.182546
rclavicle -3.02153e-014 2.38542e-015
rhumerus 43.5694 13.5725 -24.9402
rradius 109.832
rwrist -49.383
rhand -49.7788 3.55242
rfingers 7.12502
rthumb -22.3768 -25.1716
lclavicle -3.02153e-014 2.38542e-015
lhumerus 66.1792 -20.7916 30.176
lradius 106.775
lwrist 56.2756
lhand -54.6282 -7.24378
lfingers 7.12502
lthumb -27.0245 20.8428
rfemur -41.6828 -26.7194 -22.7754
rtibia 115.47
rfoot -10.6857 11.4919
rtoes -2.19099
lfemur -37.9724 20.3108 16.2038
ltibia 125.546
lfoot -17.3393 -8.31144
ltoes -0.834505
198
root 1.89726 13.9071 7.87804 88.2814 -2.07587 -3.62214
lowerback -14.1676 3.79782 -5.90728
upperback -10.0864 5.93999 1.03961
thorax -3.54108 3.48195 4.99575
lowerneck -21.7081 -5.93583 -2.3712
upperneck 36.411 -8.76186 2.42379
head 17.1853 -3.4169 -0.292051
rclavicle -3.49861e-014 -2.46493e-014
rhumerus 44.2344 12.0897 -25.6994
rradius 108.214
rwrist -50.3436
rhand -49.3397 1.12545
rfingers 7.12502
rthumb -21.9552 -27.6486
lclavicle -3.49861e-014 -2.46493e-014
lhumerus 66.6441 -20.0074 31.6788
lradius 104.893
lwrist 57.1781
lhand -53.9829 -5.81161
lfingers 7.12502
lthumb -26.407 22.3692
rfemur -40.6448 -26.0929 -22.8733
rtibia 112.902
rfoot -9.91315 9.48025
rtoes -0.676365
lfemur -37.2292 19.0758 16.0987
ltibia 123.529
lfoot -16.5263 -6.53977
ltoes 0.51776
199
root 1.90415 13.9141 7.87826 88.5559 -2.10568 -3.43571
lowerback -14.6148 3.73196 -5.87367
upperback -10.1364 5.87045 0.953195
thorax -3.33475 3.43742 4.91762
lowerneck -21.3497 -5.84339 -2.04825
upperneck 37.1132 -8.74518 2.28858
head 17.4428 -3.36842 -0.398007
rclavicle 7.79236e-014 1.66979e-014
rhumerus 44.9686 10.5891 -26.4722
rradius 106.472
rwrist -51.7501
rhand -48.5718 -1.26493
rfingers 7.12502
rthumb -21.2177 -30.1237
lclavicle 7.79236e-014 1.66979e-014
lhumerus 67.0841 -19.18 33.1048
lradius 102.92
lwrist 57.6617
lhand -53.3185 -4.61971
lfingers 7.12502
lthumb -25.7708 23.655
rfemur -39.4331 -25.363 -22.7487
rtibia 109.992
rfoot -8.98218 7.36196
rtoes 0.925294
lfemur -36.1936 17.8357 15.7079
ltibia 121.106
lfoot -15.5504 -4.50433
ltoes 2.40727
200
root 1.9102 13.9207 7.88022 88.7983 -2.13728 -3.30844
lowerback -15.0033 3.67391 -5.77804
upperback -10.1377 5.79987 0.868071
thorax -3.10004 3.38574 4.80327
lowerneck -21.1244 -5.71022 -1.74968
upperneck 37.8885 -8.65106 2.13027
head 17.779 -3.2897 -0.50092
rclavicle 1.43125e-014 1.19271e-014
rhumerus 45.8229 9.10587 -27.2014
rradius 104.607
rwrist -53.5292
rhand -47.6864 -3.48862
rfingers 7.12502
rthumb -20.367 -32.4406
lclavicle 1.43125e-014 1.19271e-014
lhumerus 67.5317 -18.2959 34.4036
lradius 100.859
lwrist 57.7655
lhand -52.6105 -3.41348
lfingers 7.12502
lthumb -25.0926 24.9578
rfemur -38.2599 -24.5854 -22.5238
rtibia 106.938
rfoot -7.83693 5.27511
rtoes 2.65821
lfemur -35.0185 16.7297 15.2537
ltibia 118.445
lfoot -14.5297 -2.40805
ltoes 4.90872
